<?xml version="1.0" encoding="utf-8"?>
<!-- Generator: Adobe Illustrator 27.0.0, SVG Export Plug-In . SVG Version: 6.00 Build 0)  -->
<svg version="1.1" id="图层_1" xmlns="http://www.w3.org/2000/svg" xmlns:xlink="http://www.w3.org/1999/xlink" x="0px" y="0px"
	 viewBox="0 0 458.5 149.4" style="enable-background:new 0 0 458.5 149.4;" xml:space="preserve">
<style type="text/css">
	.st0{clip-path:url(#SVGID_00000054241513960007781250000006395716937156659866_);}
	.st1{fill:none;stroke:#060606;stroke-width:2;}
	.st2{fill:#060606;}
	.st3{clip-path:url(#SVGID_00000029012663261175533720000006302189296318301060_);}
	.st4{fill:#FFFFFF;}
</style>
<g>
	<defs>
		<rect id="SVGID_1_" x="4" y="4.6" width="450" height="140"/>
	</defs>
	<clipPath id="SVGID_00000143577675041162804960000010148116816942578097_">
		<use xlink:href="#SVGID_1_"  style="overflow:visible;"/>
	</clipPath>
	<g style="clip-path:url(#SVGID_00000143577675041162804960000010148116816942578097_);">
		<path class="st1" d="M4,4.6h450v140H4V4.6"/>
	</g>
</g>
<g>
	<g transform="translate(37.391772, 200.715865)">
		<g>
			<path class="st2" d="M32.2-106.3c0.6,1.5,1.2,2.5,2,3.2c0.8,0.7,1.5,1,2.2,1.1v1.3c-2.7-0.1-6.1-0.2-10.1-0.2
				c-4.5,0-7.9,0.1-10.1,0.2v-1.3c1.7-0.1,2.9-0.3,3.6-0.6c0.7-0.3,1.1-0.9,1.1-1.8c0-0.8-0.3-1.9-0.8-3.2l-4-10.9H1.5l-1.7,4.6
				c-1.2,3.2-1.9,5.7-1.9,7.4c0,1.7,0.5,2.8,1.5,3.5c1,0.6,2.5,1,4.4,1.1v1.3c-3-0.1-5.8-0.2-8.3-0.2c-2,0-3.7,0.1-5.1,0.2v-1.3
				c2.2-0.4,4.1-2.7,5.7-7l15.2-39c0.5,0,1.3,0.1,2.3,0.1c1.1,0,1.8,0,2.3-0.1L32.2-106.3z M15.5-119.9l-6.6-18l-6.9,18H15.5z"/>
		</g>
	</g>
</g>
<g>
	<g transform="translate(69.236618, 200.715865)">
		<g>
			<path class="st2" d="M26.6-136.1c2,0,3.5,0.6,4.5,1.8c1,1.2,1.5,2.6,1.5,4.3c0,1.7-0.5,3-1.4,4c-1,1-2.2,1.6-3.8,1.6
				c-1.5,0-2.7-0.4-3.6-1.2c-0.9-0.8-1.3-1.8-1.3-3.1c0-2.1,1-3.9,2.9-5.2c-0.2-0.1-0.4-0.1-0.8-0.1c-0.4,0-0.8,0.1-1.1,0.1
				c-1.7,0.3-3.1,1.3-4.3,3.1c-1.2,1.8-1.8,3.6-1.8,5.5v17.7c0,2.1,0.5,3.5,1.5,4.3c1,0.8,2.6,1.2,4.8,1.2v1.4c-0.6,0-1.1,0-1.5-0.1
				c-4.5-0.1-7.6-0.2-9.1-0.2c-1.2,0-3.9,0.1-8.2,0.2c-0.4,0-0.8,0.1-1.3,0.1v-1.4c1.6,0,2.7-0.3,3.3-1c0.6-0.7,0.9-2,0.9-3.8v-21
				c0-2-0.3-3.5-0.9-4.5c-0.6-0.9-1.7-1.4-3.3-1.4v-1.4c1.4,0.1,2.8,0.2,4.1,0.2c4,0,7.2-0.3,9.7-0.9v6.2c0.8-1.9,2.1-3.5,3.7-4.6
				C22.8-135.5,24.6-136.1,26.6-136.1z"/>
		</g>
	</g>
</g>
<g>
	<g transform="translate(91.083001, 200.715865)">
		<g>
			<path class="st2" d="M24.5-135.1h7.9v1.3h-7.9v26.9c0,1.3,0.2,2.3,0.7,2.8c0.5,0.6,1.2,0.8,2.2,0.8c1.9,0,3.4-1.3,4.5-4l1.1,0.6
				c-1.7,4.6-4.7,6.9-9.1,6.9c-2.9,0-5.2-0.8-6.7-2.3c-0.9-0.9-1.6-2.1-1.9-3.5c-0.3-1.4-0.5-3.3-0.5-5.8v-22.5H9.3v-1.3h5.6v-8.8
				c3.7,0,6.9-0.7,9.6-2.1V-135.1z"/>
		</g>
	</g>
</g>
<g>
	<g transform="translate(107.180288, 200.715865)">
		<g>
			<path class="st2" d="M39.3-136.1c2,0,3.5,0.6,4.5,1.8c1,1.2,1.5,2.6,1.5,4.3c0,1.7-0.5,3-1.4,4c-1,1-2.2,1.6-3.8,1.6
				c-1.5,0-2.7-0.4-3.6-1.2c-0.9-0.8-1.3-1.8-1.3-3.1c0-2.1,1-3.9,2.9-5.2c-0.2-0.1-0.4-0.1-0.8-0.1c-0.4,0-0.8,0.1-1.1,0.1
				c-1.7,0.3-3.1,1.3-4.3,3.1c-1.2,1.8-1.8,3.6-1.8,5.5v17.7c0,2.1,0.5,3.5,1.5,4.3c1,0.8,2.6,1.2,4.8,1.2v1.4c-0.6,0-1.1,0-1.5-0.1
				c-4.5-0.1-7.6-0.2-9.1-0.2c-1.2,0-3.9,0.1-8.2,0.2c-0.4,0-0.8,0.1-1.3,0.1v-1.4c1.6,0,2.7-0.3,3.3-1c0.6-0.7,0.9-2,0.9-3.8v-21
				c0-2-0.3-3.5-0.9-4.5c-0.6-0.9-1.7-1.4-3.3-1.4v-1.4c1.4,0.1,2.8,0.2,4.1,0.2c4,0,7.2-0.3,9.7-0.9v6.2c0.8-1.9,2.1-3.5,3.7-4.6
				C35.5-135.5,37.3-136.1,39.3-136.1z"/>
		</g>
	</g>
</g>
<g>
	<g transform="translate(129.026675, 200.715865)">
		<g>
			<path class="st2" d="M43.2-105.2c3.6,0,6.6-1.8,8.8-5.3l1.2,0.4c-0.9,2.9-2.5,5.3-4.8,7.4c-2.3,2-5.1,3-8.6,3
				c-4.7,0-8.5-1.5-11.3-4.5c-2.8-3-4.2-7.4-4.2-13.3c0-6,1.5-10.6,4.5-13.8c3-3.2,6.9-4.8,11.9-4.8c8.4,0,12.5,4.9,12.5,14.8H34.6
				c0,0.7-0.1,1.7-0.1,3.1c0,2.9,0.4,5.4,1.2,7.3c0.8,1.9,1.9,3.4,3.2,4.2C40.3-105.6,41.7-105.2,43.2-105.2z M40.4-134.7
				c-1.6,0-2.9,1-4,3c-1,2-1.7,5-2,9.1h10.5c0.1-3.5-0.3-6.4-1-8.7C43.1-133.5,42-134.7,40.4-134.7z"/>
		</g>
	</g>
</g>
<g>
	<g transform="translate(152.72278, 200.715865)">
		<g>
			<path class="st2" d="M51.1-105.2c3.6,0,6.6-1.8,8.8-5.3l1.2,0.4c-0.9,2.9-2.5,5.3-4.8,7.4c-2.3,2-5.1,3-8.6,3
				c-4.7,0-8.5-1.5-11.2-4.5c-2.8-3-4.2-7.4-4.2-13.3c0-6,1.5-10.6,4.5-13.8c3-3.2,6.9-4.8,11.9-4.8c8.4,0,12.5,4.9,12.5,14.8H42.5
				c0,0.7-0.1,1.7-0.1,3.1c0,2.9,0.4,5.4,1.2,7.3c0.8,1.9,1.9,3.4,3.2,4.2C48.2-105.6,49.6-105.2,51.1-105.2z M48.3-134.7
				c-1.6,0-2.9,1-4,3c-1,2-1.7,5-2,9.1h10.5c0.1-3.5-0.3-6.4-1-8.7C51-133.5,49.9-134.7,48.3-134.7z"/>
		</g>
	</g>
</g>
<g>
	<g transform="translate(176.418881, 200.715865)">
	</g>
</g>
<g>
	<g transform="translate(186.567078, 200.715865)">
		<g>
			<path class="st2" d="M67.2-125.4c5.8,0.4,10,1.8,12.7,4c2.7,2.2,4.1,4.8,4.1,7.9c0,4.1-1.6,7.3-4.9,9.6
				c-3.2,2.2-7.7,3.4-13.5,3.4c-1.3,0-2.4,0-3.3-0.1c-2.9-0.1-5.8-0.1-8.6-0.1c-4.6,0-8,0.1-10.3,0.2v-1.3c1.5-0.1,2.5-0.3,3.2-0.5
				c0.7-0.3,1.2-0.8,1.4-1.5c0.2-0.8,0.4-2,0.4-3.7v-33.1c0-1.7-0.1-2.9-0.4-3.7c-0.2-0.8-0.7-1.3-1.4-1.5c-0.7-0.3-1.8-0.4-3.2-0.5
				v-1.3c2.3,0.1,5.6,0.2,10.1,0.2l7.4-0.1c0.9,0,1.9-0.1,3.1-0.1c5.3,0,9.4,1,12.2,2.9c2.8,1.9,4.2,4.4,4.2,7.6
				c0,2.6-1.1,5-3.4,7.2c-2.2,2.2-5.6,3.7-10,4.5V-125.4z M63.2-146.5c-1.2,0-2.1,0.2-2.6,0.5c-0.6,0.3-0.9,0.9-1.2,1.7
				c-0.2,0.8-0.3,2-0.3,3.6v15.1h2.9c2.9,0,4.9-1,6.1-3c1.2-2,1.8-4.6,1.8-7.9c0-3.3-0.5-5.8-1.6-7.5
				C67.1-145.7,65.4-146.5,63.2-146.5z M63.6-102.2c6.2,0,9.3-3.9,9.3-11.7c0-3.5-0.9-6.2-2.7-8c-1.8-1.8-4.6-2.8-8.4-2.8h-2.8v16.9
				c0,1.6,0.1,2.8,0.3,3.5c0.2,0.8,0.7,1.3,1.3,1.6C61.3-102.3,62.3-102.2,63.6-102.2z"/>
		</g>
	</g>
</g>
<g>
	<g transform="translate(218.661883, 200.715865)">
		<g>
			<path class="st2" d="M73.1-105.2c3.6,0,6.6-1.8,8.8-5.3l1.2,0.4c-0.9,2.9-2.5,5.3-4.8,7.4c-2.3,2-5.1,3-8.6,3
				c-4.7,0-8.5-1.5-11.2-4.5c-2.8-3-4.2-7.4-4.2-13.3c0-6,1.5-10.6,4.5-13.8c3-3.2,6.9-4.8,11.9-4.8c8.4,0,12.5,4.9,12.5,14.8H64.5
				c0,0.7-0.1,1.7-0.1,3.1c0,2.9,0.4,5.4,1.2,7.3c0.8,1.9,1.9,3.4,3.2,4.2C70.2-105.6,71.6-105.2,73.1-105.2z M70.3-134.7
				c-1.6,0-2.9,1-4,3c-1,2-1.7,5-2,9.1h10.5c0.1-3.5-0.3-6.4-1-8.7C73-133.5,71.8-134.7,70.3-134.7z"/>
		</g>
	</g>
</g>
<g>
	<g transform="translate(242.357983, 200.715865)">
		<g>
			<path class="st2" d="M70.2-100.2c-2.8,0-5-0.7-6.4-2.2c-1.4-1.5-2.1-3.4-2.1-5.8c0-2,0.5-3.7,1.6-5c1-1.3,2.3-2.3,3.8-3
				c1.5-0.7,3.4-1.5,5.7-2.3c2.4-0.8,4.2-1.6,5.4-2.3c1.1-0.7,1.7-1.6,1.7-2.9v-5.2c0-1.9-0.4-3.3-1.3-4.4c-0.9-1-2.2-1.6-4-1.6
				c-2.1,0-3.7,0.5-4.9,1.6c1.2,0.4,2.2,1.1,2.9,2c0.7,0.9,1,1.9,1,3.1c0,1.5-0.5,2.7-1.5,3.6c-1,0.9-2.2,1.3-3.7,1.3
				c-1.6,0-2.8-0.5-3.6-1.5c-0.8-1-1.3-2.2-1.3-3.7c0-1.2,0.3-2.3,0.9-3.1c0.6-0.9,1.5-1.7,2.8-2.4c1.2-0.7,2.7-1.3,4.4-1.7
				c1.8-0.4,3.7-0.6,5.8-0.6c2.2,0,4,0.2,5.6,0.7c1.6,0.4,2.9,1.2,4,2.3c1,1,1.6,2.2,2,3.6c0.3,1.4,0.5,3.3,0.5,5.8v18.1
				c0,1.1,0.1,1.8,0.3,2.3c0.2,0.4,0.6,0.7,1.2,0.7c0.7,0,1.5-0.4,2.4-1.1l0.7,1.1c-2,1.6-4.4,2.5-7.3,2.5c-2.4,0-4.2-0.5-5.1-1.5
				c-1-1-1.5-2.3-1.5-3.9C77.8-102,74.5-100.2,70.2-100.2z M75.3-104.4c1.7,0,3.2-0.9,4.5-2.8v-13.7c-0.5,0.9-1.7,1.9-3.4,2.9
				c-1.7,1.1-3.1,2.2-3.9,3.3c-0.9,1.1-1.3,2.7-1.3,4.8c0,1.8,0.4,3.2,1.1,4C73.1-104.9,74.1-104.4,75.3-104.4z"/>
		</g>
	</g>
</g>
<g>
	<g transform="translate(266.75397, 200.715865)">
		<g>
			<path class="st2" d="M102.7-107.9c0,2,0.3,3.5,1,4.5c0.7,0.9,1.8,1.4,3.3,1.4v1.4c-1.4-0.1-2.8-0.2-4.1-0.2
				c-3.9,0-7.1,0.3-9.7,0.9v-6c-2.1,4.1-5.6,6.2-10.8,6.2c-3.3,0-5.8-0.9-7.2-2.6c-0.7-0.8-1.2-1.9-1.6-3.3
				c-0.3-1.4-0.5-3.2-0.5-5.4v-16.9c0-2-0.3-3.5-1-4.5c-0.6-0.9-1.7-1.4-3.3-1.4v-1.4c1.4,0.1,2.8,0.2,4.1,0.2
				c3.9,0,7.1-0.3,9.7-0.9v27.6c0,1.9,0.3,3.3,0.8,4.2c0.6,0.9,1.6,1.4,3.2,1.4c1.8,0,3.3-0.7,4.6-2.2c1.3-1.5,1.9-3.3,1.9-5.5
				v-17.5c0-2-0.3-3.5-1-4.5c-0.6-0.9-1.7-1.4-3.3-1.4v-1.4c1.4,0.1,2.8,0.2,4.1,0.2c3.9,0,7.1-0.3,9.7-0.9V-107.9z"/>
		</g>
	</g>
</g>
<g>
	<g transform="translate(295.549295, 200.715865)">
		<g>
			<path class="st2" d="M92.6-135.1h7.9v1.3h-7.9v26.9c0,1.3,0.2,2.3,0.7,2.8c0.5,0.6,1.2,0.8,2.2,0.8c1.9,0,3.4-1.3,4.5-4l1.1,0.6
				c-1.7,4.6-4.7,6.9-9.1,6.9c-2.9,0-5.2-0.8-6.7-2.3c-0.9-0.9-1.6-2.1-1.9-3.5c-0.3-1.4-0.5-3.3-0.5-5.8v-22.5h-5.6v-1.3h5.6v-8.8
				c3.7,0,6.9-0.7,9.6-2.1V-135.1z"/>
		</g>
	</g>
</g>
<g>
	<g transform="translate(311.646576, 200.715865)">
		<g>
			<path class="st2" d="M111.9-134.9c2.2,0,3.9-0.1,5.1-0.2v1.3c-0.9,0.3-1.8,0.8-2.5,1.7c-0.7,0.9-1.4,2.2-2.1,4l-11.9,33.5
				c-0.9,2.3-1.9,3.9-2.9,4.8c-1.3,1.1-3.2,1.7-5.8,1.7c-1.9,0-3.6-0.5-5-1.4c-1.5-0.9-2.2-2.2-2.2-4c0-1.4,0.5-2.5,1.5-3.3
				c1-0.8,2.3-1.2,3.9-1.2c1.5,0,2.7,0.4,3.6,1.1c0.9,0.7,1.4,1.8,1.4,3.1c0,0.9-0.3,1.8-0.9,2.6c-0.6,0.8-1.4,1.4-2.5,1.8
				c0.3,0,0.8,0.1,1.5,0.1c2.8,0,4.8-1.8,6.1-5.3l1.1-3.2L86.1-130c-0.7-1.5-1.4-2.5-2.1-3c-0.7-0.5-1.4-0.7-2.1-0.7v-1.4
				c2.9,0.3,6,0.4,9.1,0.4c2.6,0,5.7-0.1,9.2-0.4v1.4c-1.4,0-2.5,0.1-3.2,0.3c-0.7,0.2-1,0.7-1,1.5c0,0.5,0.2,1.1,0.5,1.9l8.1,19.7
				l4.6-12.8c0.7-2.1,1.1-3.9,1.1-5.3c0-3.2-1.6-5-4.9-5.3v-1.3C107.6-135,109.7-134.9,111.9-134.9z"/>
		</g>
	</g>
</g>
<g>
	<defs>
		<rect id="SVGID_00000090254198102840614850000000697716608950341039_" x="55.1" y="127.2" width="347.9" height="33.1"/>
	</defs>
	<clipPath id="SVGID_00000163043212395061462240000009376906258794496688_">
		<use xlink:href="#SVGID_00000090254198102840614850000000697716608950341039_"  style="overflow:visible;"/>
	</clipPath>
	<g style="clip-path:url(#SVGID_00000163043212395061462240000009376906258794496688_);">
		<path class="st4" d="M55.1,127.2h346.9V160H55.1V127.2z"/>
	</g>
</g>
<g>
	<g transform="translate(79.058582, 237.694247)">
		<g>
			<path class="st2" d="M12.2-100.3c0.8,0,1.7,0.2,2.5,0.5c0.8,0.3,1.5,0.8,2.1,1.4L15.6-97c-0.4-0.5-0.9-0.8-1.5-1.1
				c-0.6-0.3-1.2-0.4-1.8-0.4c-1.2,0-2.2,0.4-3.1,1.2c-0.8,0.8-1.2,1.8-1.2,3c0,1.2,0.4,2.2,1.2,3c0.8,0.8,1.9,1.2,3.1,1.2
				c1.2,0,2.3-0.5,3.3-1.4l1.2,1.3c-0.6,0.6-1.3,1.1-2.1,1.4c-0.8,0.3-1.6,0.5-2.5,0.5c-1.8,0-3.2-0.6-4.4-1.8
				c-1.2-1.2-1.8-2.6-1.8-4.3c0-1.7,0.6-3.1,1.8-4.3C9-99.8,10.5-100.3,12.2-100.3z"/>
		</g>
	</g>
</g>
<g>
	<g transform="translate(95.051421, 237.694247)">
		<g>
			<path class="st2" d="M19.8-88.3L17.7-92c-0.1,0-0.3,0-0.5,0h-2.9v3.6h-2v-12h4.9c1.5,0,2.7,0.4,3.5,1.1c0.8,0.7,1.3,1.7,1.3,3
				c0,0.9-0.2,1.8-0.6,2.4c-0.4,0.7-1,1.2-1.8,1.5l2.7,4H19.8z M14.3-93.7h2.9c1.9,0,2.9-0.8,2.9-2.4c0-1.6-1-2.3-2.9-2.3h-2.9
				V-93.7z"/>
		</g>
	</g>
</g>
<g>
	<g transform="translate(111.377592, 237.694247)">
		<g>
			<path class="st2" d="M26.2-98.5h-6.5v3.2h5.9v1.8h-5.9v3.3h6.8v1.8h-8.8v-12h8.5V-98.5z"/>
		</g>
	</g>
</g>
<g>
	<g transform="translate(126.844805, 237.694247)">
		<g>
			<path class="st2" d="M30.6-91h-6l-1.1,2.7h-2.1l5.3-12h2.1l5.2,12h-2.1L30.6-91z M29.8-92.8l-2.3-5.3l-2.2,5.3H29.8z"/>
		</g>
	</g>
</g>
<g>
	<g transform="translate(143.36328, 237.694247)">
		<g>
			<path class="st2" d="M36.5-98.5h-3.8v10.2h-2v-10.2h-3.8v-1.8h9.6V-98.5z"/>
		</g>
	</g>
</g>
<g>
	<g transform="translate(157.843334, 237.694247)">
		<g>
			<path class="st2" d="M41.7-98.5h-6.5v3.2H41v1.8h-5.9v3.3h6.8v1.8h-8.8v-12h8.5V-98.5z"/>
		</g>
	</g>
</g>
<g>
	<g transform="translate(173.310544, 237.694247)">
	</g>
</g>
<g>
	<g transform="translate(183.675303, 237.694247)">
		<g>
			<path class="st2" d="M49.5-91h-6l-1.1,2.7h-2.1l5.3-12h2.1l5.2,12h-2.1L49.5-91z M48.8-92.8l-2.3-5.3l-2.2,5.3H48.8z"/>
		</g>
	</g>
</g>
<g>
	<g transform="translate(200.193784, 237.694247)">
		<g>
			<path class="st2" d="M54.9-88.3L52.7-92c-0.1,0-0.3,0-0.5,0h-2.9v3.6h-2v-12h4.9c1.5,0,2.7,0.4,3.5,1.1c0.8,0.7,1.3,1.7,1.3,3
				c0,0.9-0.2,1.8-0.6,2.4c-0.4,0.7-1,1.2-1.8,1.5l2.7,4H54.9z M49.3-93.7h2.9c1.9,0,2.9-0.8,2.9-2.4c0-1.6-1-2.3-2.9-2.3h-2.9
				V-93.7z"/>
		</g>
	</g>
</g>
<g>
	<g transform="translate(216.519958, 237.694247)">
		<g>
			<path class="st2" d="M60.9-98.5h-3.8v10.2h-2v-10.2h-3.8v-1.8h9.6V-98.5z"/>
		</g>
	</g>
</g>
<g>
	<g transform="translate(231.000017, 237.694247)">
		<g>
			<path class="st2" d="M59.6-88.3h-2v-12h2V-88.3z"/>
		</g>
	</g>
</g>
<g>
	<g transform="translate(241.928873, 237.694247)">
		<g>
			<path class="st2" d="M65.1-100.4c1.6,0,3,0.4,4.2,1.2l-0.9,1.8c-1.2-0.8-2.4-1.1-3.5-1.1c-0.6,0-1.1,0.1-1.4,0.3
				c-0.3,0.2-0.5,0.5-0.5,0.9c0,0.4,0.2,0.7,0.5,1c0.3,0.3,0.7,0.5,1.2,0.6c0.5,0.1,1,0.3,1.6,0.5c0.6,0.2,1.1,0.4,1.6,0.6
				c0.5,0.2,0.9,0.6,1.2,1c0.3,0.5,0.5,1,0.5,1.7c0,1.1-0.4,1.9-1.3,2.5c-0.8,0.6-1.9,0.9-3.2,0.9c-0.9,0-1.8-0.2-2.7-0.5
				c-0.8-0.3-1.6-0.8-2.2-1.4l0.9-1.8c0.6,0.6,1.3,1,2,1.3c0.7,0.3,1.4,0.4,2.1,0.4c0.7,0,1.3-0.1,1.6-0.4c0.4-0.3,0.6-0.6,0.6-1.1
				c0-0.4-0.2-0.7-0.5-1c-0.3-0.3-0.7-0.5-1.2-0.6c-0.5-0.1-1-0.3-1.5-0.5c-0.6-0.2-1.1-0.4-1.6-0.6c-0.5-0.2-0.9-0.6-1.2-1
				c-0.3-0.5-0.5-1-0.5-1.7c0-1,0.4-1.8,1.2-2.4C62.8-100.1,63.8-100.4,65.1-100.4z"/>
		</g>
	</g>
</g>
<g>
	<g transform="translate(256.960206, 237.694247)">
		<g>
			<path class="st2" d="M74.4-98.5h-3.8v10.2h-2v-10.2h-3.8v-1.8h9.6V-98.5z"/>
		</g>
	</g>
</g>
<g>
	<g transform="translate(271.440254, 237.694247)">
		<g>
			<path class="st2" d="M78.6-88.3L76.5-92c-0.1,0-0.3,0-0.5,0h-2.9v3.6h-2v-12h4.9c1.5,0,2.7,0.4,3.5,1.1c0.8,0.7,1.3,1.7,1.3,3
				c0,0.9-0.2,1.8-0.6,2.4c-0.4,0.7-1,1.2-1.8,1.5l2.7,4H78.6z M73.1-93.7h2.9c1.9,0,2.9-0.8,2.9-2.4c0-1.6-1-2.3-2.9-2.3h-2.9
				V-93.7z"/>
		</g>
	</g>
</g>
<g>
	<g transform="translate(287.766417, 237.694247)">
		<g>
			<path class="st2" d="M81.4-92.3v4h-2v-3.9l-4.5-8.1h2l3.4,5.8l3.4-5.8h2L81.4-92.3z"/>
		</g>
	</g>
</g>
</svg>
